<?xml version="1.0" encoding="UTF-8"?>
<svg xmlns="http://www.w3.org/2000/svg" viewBox="0 0 1200 400" width="1200" height="400">
  <defs>
    <linearGradient id="waveGradient" x1="0%" y1="0%" x2="0%" y2="100%">
      <stop offset="0%" stop-color="#38bdf8" stop-opacity="0.95" />
      <stop offset="60%" stop-color="#818cf8" stop-opacity="0.75" />
      <stop offset="100%" stop-color="#4f46e5" stop-opacity="0.3" />
    </linearGradient>
    <linearGradient id="bgGradient" x1="0%" y1="0%" x2="100%" y2="100%">
      <stop offset="0%" stop-color="#0b0f19" />
      <stop offset="100%" stop-color="#111827" />
    </linearGradient>
  </defs>

  <!-- Background -->
  <rect width="1200" height="400" fill="url(#bgGradient)" rx="12" />
  <rect x="70" y="80" width="1090" height="250" fill="#030712" rx="4" opacity="0.6" />

  <!-- Header & Metadata -->
  <text x="30" y="38" fill="#f8fafc" font-size="18" font-family="system-ui, sans-serif" font-weight="700">Audio Energy Profile &amp; Cut Alignment</text>
  <text x="30" y="58" fill="#94a3b8" font-size="12" font-family="monospace">Project: dzinr_motion | Duration: 11.03s | Peak: 0.78 | Avg RMS: 0.144 | Alignment: 17%</text>

  <!-- Grid and Ticks -->
  
    <line x1="70" y1="267.5" x2="1160" y2="267.5" stroke="#334155" stroke-dasharray="2,4" stroke-width="1" />
    <text x="60" y="271.5" fill="#64748b" font-size="10" font-family="monospace" text-anchor="end">0.11</text>
  
    <line x1="70" y1="205" x2="1160" y2="205" stroke="#334155" stroke-dasharray="2,4" stroke-width="1" />
    <text x="60" y="209" fill="#64748b" font-size="10" font-family="monospace" text-anchor="end">0.22</text>
  
    <line x1="70" y1="142.5" x2="1160" y2="142.5" stroke="#334155" stroke-dasharray="2,4" stroke-width="1" />
    <text x="60" y="146.5" fill="#64748b" font-size="10" font-family="monospace" text-anchor="end">0.33</text>
  
    <line x1="70" y1="80" x2="1160" y2="80" stroke="#334155" stroke-dasharray="2,4" stroke-width="1" />
    <text x="60" y="84" fill="#64748b" font-size="10" font-family="monospace" text-anchor="end">0.45</text>
  
  
    <line x1="70" y1="330" x2="70" y2="336" stroke="#475569" stroke-width="1" />
    <text x="70" y="350" fill="#94a3b8" font-size="11" font-family="monospace" text-anchor="middle">0s</text>
  
    <line x1="168.794525514366" y1="330" x2="168.794525514366" y2="336" stroke="#475569" stroke-width="1" />
    <text x="168.794525514366" y="350" fill="#94a3b8" font-size="11" font-family="monospace" text-anchor="middle">1s</text>
  
    <line x1="267.589051028732" y1="330" x2="267.589051028732" y2="336" stroke="#475569" stroke-width="1" />
    <text x="267.589051028732" y="350" fill="#94a3b8" font-size="11" font-family="monospace" text-anchor="middle">2s</text>
  
    <line x1="366.383576543098" y1="330" x2="366.383576543098" y2="336" stroke="#475569" stroke-width="1" />
    <text x="366.383576543098" y="350" fill="#94a3b8" font-size="11" font-family="monospace" text-anchor="middle">3s</text>
  
    <line x1="465.178102057464" y1="330" x2="465.178102057464" y2="336" stroke="#475569" stroke-width="1" />
    <text x="465.178102057464" y="350" fill="#94a3b8" font-size="11" font-family="monospace" text-anchor="middle">4s</text>
  
    <line x1="563.97262757183" y1="330" x2="563.97262757183" y2="336" stroke="#475569" stroke-width="1" />
    <text x="563.97262757183" y="350" fill="#94a3b8" font-size="11" font-family="monospace" text-anchor="middle">5s</text>
  
    <line x1="662.767153086196" y1="330" x2="662.767153086196" y2="336" stroke="#475569" stroke-width="1" />
    <text x="662.767153086196" y="350" fill="#94a3b8" font-size="11" font-family="monospace" text-anchor="middle">6s</text>
  
    <line x1="761.561678600562" y1="330" x2="761.561678600562" y2="336" stroke="#475569" stroke-width="1" />
    <text x="761.561678600562" y="350" fill="#94a3b8" font-size="11" font-family="monospace" text-anchor="middle">7s</text>
  
    <line x1="860.356204114928" y1="330" x2="860.356204114928" y2="336" stroke="#475569" stroke-width="1" />
    <text x="860.356204114928" y="350" fill="#94a3b8" font-size="11" font-family="monospace" text-anchor="middle">8s</text>
  
    <line x1="959.150729629294" y1="330" x2="959.150729629294" y2="336" stroke="#475569" stroke-width="1" />
    <text x="959.150729629294" y="350" fill="#94a3b8" font-size="11" font-family="monospace" text-anchor="middle">9s</text>
  
    <line x1="1057.94525514366" y1="330" x2="1057.94525514366" y2="336" stroke="#475569" stroke-width="1" />
    <text x="1057.94525514366" y="350" fill="#94a3b8" font-size="11" font-family="monospace" text-anchor="middle">10s</text>
  
    <line x1="1156.739780658026" y1="330" x2="1156.739780658026" y2="336" stroke="#475569" stroke-width="1" />
    <text x="1156.739780658026" y="350" fill="#94a3b8" font-size="11" font-family="monospace" text-anchor="middle">11s</text>
  

  <!-- Waveform / Energy Profile Fill -->
  <path d="M 70.0,323.1 70.0,323.1 L 75.0,301.4 L 80.0,287.3 L 84.9,280.5 L 89.9,224.8 L 94.9,175.0 L 99.9,151.0 L 104.8,206.1 L 109.8,249.5 L 114.8,281.4 L 119.8,289.0 L 124.7,298.9 L 129.7,305.2 L 134.7,312.5 L 139.7,319.5 L 144.7,296.1 L 149.6,268.6 L 154.6,294.6 L 159.6,296.9 L 164.6,300.2 L 169.5,302.9 L 174.5,228.7 L 179.5,192.2 L 184.5,159.8 L 189.5,178.5 L 194.4,223.3 L 199.4,269.7 L 204.4,298.2 L 209.4,302.2 L 214.3,310.0 L 219.3,313.8 L 224.3,320.4 L 229.3,322.0 L 234.2,206.1 L 239.2,170.7 L 244.2,156.4 L 249.2,238.3 L 254.2,236.1 L 259.1,241.8 L 264.1,231.0 L 269.1,224.8 L 274.1,251.2 L 279.0,263.8 L 284.0,283.1 L 289.0,293.9 L 294.0,291.5 L 298.9,301.8 L 303.9,307.0 L 308.9,309.2 L 313.9,279.3 L 318.9,170.2 L 323.8,108.5 L 328.8,105.7 L 333.8,168.5 L 338.8,241.4 L 343.7,283.6 L 348.7,287.9 L 353.7,304.3 L 358.7,294.7 L 363.7,303.5 L 368.6,295.0 L 373.6,267.3 L 378.6,283.6 L 383.6,293.0 L 388.5,294.3 L 393.5,303.1 L 398.5,258.1 L 403.5,193.5 L 408.4,163.8 L 413.4,171.8 L 418.4,221.1 L 423.4,273.0 L 428.4,291.0 L 433.3,301.1 L 438.3,301.1 L 443.3,301.8 L 448.3,300.0 L 453.2,302.6 L 458.2,219.1 L 463.2,190.1 L 468.2,151.1 L 473.2,198.0 L 478.1,250.1 L 483.1,268.7 L 488.1,235.4 L 493.1,242.9 L 498.0,263.8 L 503.0,272.4 L 508.0,289.0 L 513.0,298.4 L 517.9,301.8 L 522.9,307.6 L 527.9,307.2 L 532.9,295.2 L 537.9,302.6 L 542.8,233.8 L 547.8,184.4 L 552.8,142.1 L 557.8,168.4 L 562.7,232.3 L 567.7,262.5 L 572.7,249.0 L 577.7,299.9 L 582.6,305.8 L 587.6,291.8 L 592.6,295.6 L 597.6,301.1 L 602.6,255.1 L 607.5,269.8 L 612.5,285.2 L 617.5,284.3 L 622.5,288.6 L 627.4,265.6 L 632.4,206.9 L 637.4,157.6 L 642.4,161.3 L 647.4,229.8 L 652.3,265.3 L 657.3,286.2 L 662.3,290.4 L 667.3,304.5 L 672.2,292.6 L 677.2,295.9 L 682.2,303.3 L 687.2,227.6 L 692.1,227.5 L 697.1,172.0 L 702.1,201.8 L 707.1,217.9 L 712.1,231.8 L 717.0,221.3 L 722.0,225.1 L 727.0,260.1 L 732.0,267.0 L 736.9,264.0 L 741.9,275.0 L 746.9,277.7 L 751.9,278.2 L 756.8,278.9 L 761.8,270.8 L 766.8,271.1 L 771.8,229.8 L 776.8,211.2 L 781.7,207.9 L 786.7,207.1 L 791.7,254.3 L 796.7,246.7 L 801.6,234.1 L 806.6,239.1 L 811.6,267.6 L 816.6,296.7 L 821.6,291.9 L 826.5,303.7 L 831.5,314.9 L 836.5,315.1 L 841.5,313.5 L 846.4,312.9 L 851.4,304.2 L 856.4,304.4 L 861.4,306.7 L 866.3,205.1 L 871.3,196.8 L 876.3,124.4 L 881.3,91.9 L 886.3,117.5 L 891.2,156.1 L 896.2,195.7 L 901.2,164.2 L 906.2,147.4 L 911.1,157.3 L 916.1,158.6 L 921.1,172.5 L 926.1,171.6 L 931.1,191.8 L 936.0,196.2 L 941.0,201.6 L 946.0,213.6 L 951.0,199.4 L 955.9,208.9 L 960.9,184.3 L 965.9,185.1 L 970.9,188.8 L 975.8,230.2 L 980.8,228.3 L 985.8,220.8 L 990.8,222.7 L 995.8,224.8 L 1000.7,229.7 L 1005.7,238.0 L 1010.7,234.2 L 1015.7,218.0 L 1020.6,210.4 L 1025.6,194.4 L 1030.6,228.4 L 1035.6,253.1 L 1040.5,264.7 L 1045.5,259.9 L 1050.5,271.3 L 1055.5,279.7 L 1060.5,282.7 L 1065.4,294.3 L 1070.4,298.7 L 1075.4,302.0 L 1080.4,307.1 L 1085.3,309.5 L 1090.3,308.6 L 1095.3,313.2 L 1100.3,306.9 L 1105.3,294.9 L 1110.2,281.2 L 1115.2,292.7 L 1120.2,309.8 L 1125.2,323.9 L 1130.1,323.8 L 1135.1,328.0 L 1140.1,328.4 L 1145.1,328.1 L 1150.0,328.8 L 1155.0,329.3 L 1160.0,329.4 L 1160.0,330.0 L 1155.0,330.0 L 1150.0,330.0 L 1145.1,330.0 L 1140.1,330.0 L 1135.1,330.0 L 1130.1,330.0 L 1125.2,330.0 L 1120.2,330.0 L 1115.2,330.0 L 1110.2,330.0 L 1105.3,330.0 L 1100.3,330.0 L 1095.3,330.0 L 1090.3,330.0 L 1085.3,330.0 L 1080.4,330.0 L 1075.4,330.0 L 1070.4,330.0 L 1065.4,330.0 L 1060.5,330.0 L 1055.5,330.0 L 1050.5,330.0 L 1045.5,330.0 L 1040.5,330.0 L 1035.6,330.0 L 1030.6,330.0 L 1025.6,330.0 L 1020.6,330.0 L 1015.7,330.0 L 1010.7,330.0 L 1005.7,330.0 L 1000.7,330.0 L 995.8,330.0 L 990.8,330.0 L 985.8,330.0 L 980.8,330.0 L 975.8,330.0 L 970.9,330.0 L 965.9,330.0 L 960.9,330.0 L 955.9,330.0 L 951.0,330.0 L 946.0,330.0 L 941.0,330.0 L 936.0,330.0 L 931.1,330.0 L 926.1,330.0 L 921.1,330.0 L 916.1,330.0 L 911.1,330.0 L 906.2,330.0 L 901.2,330.0 L 896.2,330.0 L 891.2,330.0 L 886.3,330.0 L 881.3,330.0 L 876.3,330.0 L 871.3,330.0 L 866.3,330.0 L 861.4,330.0 L 856.4,330.0 L 851.4,330.0 L 846.4,330.0 L 841.5,330.0 L 836.5,330.0 L 831.5,330.0 L 826.5,330.0 L 821.6,330.0 L 816.6,330.0 L 811.6,330.0 L 806.6,330.0 L 801.6,330.0 L 796.7,330.0 L 791.7,330.0 L 786.7,330.0 L 781.7,330.0 L 776.8,330.0 L 771.8,330.0 L 766.8,330.0 L 761.8,330.0 L 756.8,330.0 L 751.9,330.0 L 746.9,330.0 L 741.9,330.0 L 736.9,330.0 L 732.0,330.0 L 727.0,330.0 L 722.0,330.0 L 717.0,330.0 L 712.1,330.0 L 707.1,330.0 L 702.1,330.0 L 697.1,330.0 L 692.1,330.0 L 687.2,330.0 L 682.2,330.0 L 677.2,330.0 L 672.2,330.0 L 667.3,330.0 L 662.3,330.0 L 657.3,330.0 L 652.3,330.0 L 647.4,330.0 L 642.4,330.0 L 637.4,330.0 L 632.4,330.0 L 627.4,330.0 L 622.5,330.0 L 617.5,330.0 L 612.5,330.0 L 607.5,330.0 L 602.6,330.0 L 597.6,330.0 L 592.6,330.0 L 587.6,330.0 L 582.6,330.0 L 577.7,330.0 L 572.7,330.0 L 567.7,330.0 L 562.7,330.0 L 557.8,330.0 L 552.8,330.0 L 547.8,330.0 L 542.8,330.0 L 537.9,330.0 L 532.9,330.0 L 527.9,330.0 L 522.9,330.0 L 517.9,330.0 L 513.0,330.0 L 508.0,330.0 L 503.0,330.0 L 498.0,330.0 L 493.1,330.0 L 488.1,330.0 L 483.1,330.0 L 478.1,330.0 L 473.2,330.0 L 468.2,330.0 L 463.2,330.0 L 458.2,330.0 L 453.2,330.0 L 448.3,330.0 L 443.3,330.0 L 438.3,330.0 L 433.3,330.0 L 428.4,330.0 L 423.4,330.0 L 418.4,330.0 L 413.4,330.0 L 408.4,330.0 L 403.5,330.0 L 398.5,330.0 L 393.5,330.0 L 388.5,330.0 L 383.6,330.0 L 378.6,330.0 L 373.6,330.0 L 368.6,330.0 L 363.7,330.0 L 358.7,330.0 L 353.7,330.0 L 348.7,330.0 L 343.7,330.0 L 338.8,330.0 L 333.8,330.0 L 328.8,330.0 L 323.8,330.0 L 318.9,330.0 L 313.9,330.0 L 308.9,330.0 L 303.9,330.0 L 298.9,330.0 L 294.0,330.0 L 289.0,330.0 L 284.0,330.0 L 279.0,330.0 L 274.1,330.0 L 269.1,330.0 L 264.1,330.0 L 259.1,330.0 L 254.2,330.0 L 249.2,330.0 L 244.2,330.0 L 239.2,330.0 L 234.2,330.0 L 229.3,330.0 L 224.3,330.0 L 219.3,330.0 L 214.3,330.0 L 209.4,330.0 L 204.4,330.0 L 199.4,330.0 L 194.4,330.0 L 189.5,330.0 L 184.5,330.0 L 179.5,330.0 L 174.5,330.0 L 169.5,330.0 L 164.6,330.0 L 159.6,330.0 L 154.6,330.0 L 149.6,330.0 L 144.7,330.0 L 139.7,330.0 L 134.7,330.0 L 129.7,330.0 L 124.7,330.0 L 119.8,330.0 L 114.8,330.0 L 109.8,330.0 L 104.8,330.0 L 99.9,330.0 L 94.9,330.0 L 89.9,330.0 L 84.9,330.0 L 80.0,330.0 L 75.0,330.0 L 70.0,330.0 Z" fill="url(#waveGradient)" />

  <!-- Scene Cut Markers -->
  
    <line x1="70" y1="80" x2="70" y2="330" stroke="#f43f5e" stroke-dasharray="4,4" stroke-width="1.5" opacity="0.85" />
    <circle cx="70" cy="80" r="4" fill="#f43f5e" />
    <text x="74" y="68" fill="#fda4af" font-size="11" font-family="monospace" font-weight="bold">scene_01 (0.0s)</text>
  
    <line x1="247.8301459258588" y1="80" x2="247.8301459258588" y2="330" stroke="#f43f5e" stroke-dasharray="4,4" stroke-width="1.5" opacity="0.85" />
    <circle cx="247.8301459258588" cy="80" r="4" fill="#f43f5e" />
    <text x="251.8301459258588" y="68" fill="#fda4af" font-size="11" font-family="monospace" font-weight="bold">scene_02 (1.8s)</text>
  
    <line x1="386.14248164597126" y1="80" x2="386.14248164597126" y2="330" stroke="#f43f5e" stroke-dasharray="4,4" stroke-width="1.5" opacity="0.85" />
    <circle cx="386.14248164597126" cy="80" r="4" fill="#f43f5e" />
    <text x="390.14248164597126" y="68" fill="#fda4af" font-size="11" font-family="monospace" font-weight="bold">scene_03 (3.2s)</text>
  
    <line x1="504.6959122632104" y1="80" x2="504.6959122632104" y2="330" stroke="#f43f5e" stroke-dasharray="4,4" stroke-width="1.5" opacity="0.85" />
    <circle cx="504.6959122632104" cy="80" r="4" fill="#f43f5e" />
    <text x="508.6959122632104" y="68" fill="#fda4af" font-size="11" font-family="monospace" font-weight="bold">scene_04 (4.4s)</text>
  
    <line x1="643.0082479833228" y1="80" x2="643.0082479833228" y2="330" stroke="#f43f5e" stroke-dasharray="4,4" stroke-width="1.5" opacity="0.85" />
    <circle cx="643.0082479833228" cy="80" r="4" fill="#f43f5e" />
    <text x="647.0082479833228" y="68" fill="#fda4af" font-size="11" font-family="monospace" font-weight="bold">scene_05 (5.8s)</text>
  
    <line x1="810.9589413577451" y1="80" x2="810.9589413577451" y2="330" stroke="#f43f5e" stroke-dasharray="4,4" stroke-width="1.5" opacity="0.85" />
    <circle cx="810.9589413577451" cy="80" r="4" fill="#f43f5e" />
    <text x="814.9589413577451" y="68" fill="#fda4af" font-size="11" font-family="monospace" font-weight="bold">scene_06 (7.5s)</text>
  

  <!-- Axis borders -->
  <line x1="70" y1="80" x2="70" y2="330" stroke="#475569" stroke-width="1.5" />
  <line x1="70" y1="330" x2="1160" y2="330" stroke="#475569" stroke-width="1.5" />
</svg>